<?xml version="1.0" encoding="utf-8"?>
<!-- Generator: Adobe Illustrator 24.1.1, SVG Export Plug-In . SVG Version: 6.00 Build 0)  -->
<svg version="1.1" id="Layer_1" xmlns="http://www.w3.org/2000/svg" xmlns:xlink="http://www.w3.org/1999/xlink" x="0px" y="0px"
	 viewBox="0 0 359 292.9" style="enable-background:new 0 0 359 292.9;" xml:space="preserve">
<style type="text/css">
	.st0{fill:#2F3C4D;}
</style>
<path class="st0" d="M17.5,292.5c-1.4,0.6-2.5,0.1-3.4-1.3c-3.9-9.7-8.5-19-13.8-28c-0.4-1.1-0.4-2.3,0-3.4c0.3-1.1,1.1-1.9,2.1-2.4
	c1-0.4,2.2-0.1,2.9,0.8c0.8-3.3,3.1-6,6.3-7.2c4.2-1.7,8.3-1.1,12.3,2c0.8-4.6,3.9-8.4,8.2-10.1c4.4-1.8,8.4-1.4,12,1.2
	c2.7,2,4.9,4.5,6.6,7.4c2.8,4.7,5.1,9.7,7.1,14.8c0.9,2,1.5,4.1,1.7,6.3c0.1,1.6-0.9,3-2.5,3.5c-1.4,0.6-2.4,0-3.2-1.8l-3.9-10.1
	c-4.9-12-10.5-16.7-16.8-14.1c-1.7,0.5-3,2-3.3,3.8c-0.2,2,0,4,0.5,5.8c1.1,3.3,2.2,6.2,3.3,8.8l4.8,11.6c0.3,0.9,0.2,1.9-0.4,2.7
	c-0.5,0.9-1.3,1.6-2.3,2c-1.2,0.5-2.2,0-3.2-1.4L26,267c-2.4-5.9-4.9-9.1-7.5-9.7c-1.6-0.2-3.3,0-4.8,0.8c-1.8,0.6-3.1,2.1-3.4,3.9
	c-0.3,1.8,0.2,4.3,1.5,7.5l6.6,14.7C20.3,288.7,20,291.5,17.5,292.5z"/>
<path class="st0" d="M77.5,224.6c0.7-0.3,1.6-0.3,2.3-0.1c0.7,0.1,1.3,0.5,1.7,1.2c0.7,1.6,1.9,10.8,3.6,27.9s2.7,29.1,3.1,36.1
	c0.1,1.6-0.3,2.7-1.3,3.1c-0.9,0.4-2,0.4-2.8-0.1c-1-0.7-1.8-1.6-2.2-2.8c-0.6-1.4-1-5.1-1.4-11c-0.4-5.9-0.7-9.8-0.9-11.4
	c-2.2-1.7-11.4-11-27.3-28c-0.8-0.8-0.9-2.1-0.3-3.1c0.4-1,1.2-1.8,2.2-2.2c1.1-0.5,2.5-0.2,3.4,0.6c1.5,1.6,4.1,4.4,7.8,8.5
	c3.7,4.1,6.4,7,8.2,8.7c1.8,1.7,3.6,3.6,5.4,5.5c-0.3-2.8-1-8.2-2.2-16.1c-1.2-8-1.8-12.5-2-13.6C74.4,226.5,75.4,225.4,77.5,224.6z
	"/>
<path class="st0" d="M117.5,241.7c-2.6-5.3-5.9-12.7-9.7-22c-3.9-9.3-6.2-15.4-7.1-18.3c-0.4-1.8,0.3-3.4,2.1-4.8
	c2.4-1.7,5.1-3.2,7.9-4.2c4.4-2,9.2-2.7,14-2c4.2,0.6,7.7,3.5,9.1,7.4c1.3,2.9,2,6.1,2.1,9.3c0.1,2.3-0.4,4.6-1.5,6.6
	c-1.6,2.8-4.7,5.1-9.3,7c-2.6,1-5.3,1.8-8.1,2.4c4.7,10.5,7.5,17.2,8.6,20c1.1,2.8,0.7,4.6-1.1,5.3c-1.2,0.5-2,0.6-2.5,0.3
	c-0.3-0.2-0.7-0.4-1-0.7c-0.3-0.2-0.5-0.4-0.7-0.7c-0.3-0.3-0.5-0.6-0.6-0.8c-0.2-0.3-0.4-0.7-0.6-1c-0.2-0.4-0.4-0.7-0.6-1.1
	C118.3,243.5,117.9,242.6,117.5,241.7z M127.2,200.6c-0.9-2.2-2.8-3.4-5.6-3.7c-2.8-0.3-5.7,0.1-8.3,1.2c-1.9,0.7-3.7,1.7-5.3,3
	c1.1,3.2,2.2,6.2,3.3,8.8c1,2.4,2.1,4.7,3.3,7c1.5-0.4,2.5-0.7,3.1-0.8c1.2-0.3,2.5-0.7,3.7-1.2c1-0.4,1.6-0.7,2-0.9
	c0.3-0.2,1-0.5,1.9-1.1c0.7-0.4,1.4-0.9,1.8-1.6c0.3-0.5,0.6-1.1,1.1-1.9c0.4-0.7,0.6-1.6,0.6-2.4
	C128.6,204.9,128.1,202.7,127.2,200.6z"/>
<path class="st0" d="M163.3,218.7l3.5,8.2c0.4,1,0.3,2.2-0.2,3.2c-0.4,1-1.1,1.8-2.1,2.3c-1.2,0.5-2.4-0.1-3.5-1.9
	c-0.2-0.4-2.1-4.2-5.5-11.4c-2.6-5.8-5.7-11.3-9.3-16.5c-0.8-1-1.5-2.1-2.2-3.3c-0.7-1.8,0-3.1,2.1-4c0.8-0.4,1.8-0.3,2.6,0.1
	c0.8,0.4,1.4,1,1.9,1.7c0.4,0.7,0.9,1.6,1.6,2.8s1,1.9,1.2,2.2c-0.1-2.9,0.8-5.7,2.6-8.1c1.7-2.2,3.9-4,6.5-5c4.4-1.8,7-1.6,7.9,0.6
	c0.5,1,0.4,2.2-0.1,3.1c-0.5,1-1.3,1.7-2.3,2.1c-4.5,1.9-7.1,4.6-7.8,8.3C159.5,206.8,160.5,212,163.3,218.7z"/>
<path class="st0" d="M187.3,178.9c3.8-1.6,7.7-1,11.7,1.6c4.2,2.9,7.4,7,9.2,11.7c2.1,4.6,2.6,9.8,1.6,14.7c-0.8,4.3-3.7,8-7.8,9.6
	c-4.2,1.7-8.3,1.3-12.4-1.4c-4-2.6-7.1-6.3-8.9-10.8c-2.4-5.8-3.1-10.9-2.2-15.3C179.5,184.3,182.4,180.9,187.3,178.9z M189,185.8
	c-2.2,0.9-3.6,2.9-4.1,5.8c-0.5,2.8-0.2,5.7,0.9,8.3c1.7,4,3.7,6.8,6.2,8.3c2.5,1.5,4.7,1.8,6.7,0.9c3.6-1.5,5.3-4,5-7.6
	c-0.3-2-0.9-4-1.7-5.9C198.6,187,194.2,183.7,189,185.8L189,185.8z"/>
<path class="st0" d="M209.8,170.4c0.7-1,1.6-1.7,2.8-2.1c1.1-0.6,2.4-0.2,3,0.8c0,0.1,0.1,0.1,0.1,0.2c3.3,5.9,6.2,11.9,8.8,18.1
	c2.4,5.9,4.7,11.8,6.7,17.8c2.1,6,3.1,10.9,3.1,14.7c-0.1,4.9-2.5,8.4-7.2,10.4c-2.3,1-4.8,1.1-7.1,0.3c-2.2-0.6-4-2.2-4.8-4.3
	c-0.5-1-0.4-2.1,0.1-3c0.5-0.9,1.3-1.6,2.3-2c0.8-0.4,1.6-0.4,2.4-0.2c0.6,0.3,1.2,0.7,1.6,1.2c1.2,1.3,2.4,1.7,3.7,1.2s2-2,2.1-4.5
	c0-3.1-0.6-6.3-1.7-9.2c-1.2-3.7-2.6-7.5-4.2-11.5c-5.2-12.5-9-21-11.6-25.5C209.4,172.1,209.3,171.2,209.8,170.4z M205.9,156.2
	c1.1-0.4,2.3-0.3,3.3,0.2c1.1,0.4,2,1.3,2.4,2.3c0.4,1.2,0.3,2.4-0.2,3.6c-0.3,1.2-1.2,2.2-2.3,2.7c-1.1,0.4-2.3,0.4-3.3-0.1
	c-1.2-0.5-2.1-1.6-2.6-2.8c-1.1-2.6-0.2-4.5,2.4-5.9L205.9,156.2z"/>
<path class="st0" d="M235.7,159.2c2.9-1.2,6-1.5,9.1-0.9c3.2,0.6,5.4,2.1,6.4,4.5c1,2.7,0.9,5.7-0.2,8.3c-1.2,3.2-3.6,5.9-6.6,7.5
	c-2.1,1.2-4.3,2.2-6.6,3.1c2.5,4.3,4.8,6.8,7.1,7.5c0.8,0.4,1.7,0.4,2.5,0c3.1-1.2,5.6-3.5,7-6.6c1.4-3,2.5-4.7,3.5-5.1
	c0.8-0.1,1.7,0,2.4,0.4c0.9,0.2,1.7,0.9,2.2,1.7c0.6,1.4-0.3,4.1-2.5,8.1c-1.1,2-2.5,3.8-4.1,5.3c-1.5,1.5-3.4,2.8-5.4,3.7
	c-4.6,1.9-9.3,0.3-13.9-4.7c-3-3.3-5.4-7.1-7.1-11.3c-1.8-4-2.3-8.4-1.6-12.7C228.6,164,231.2,161,235.7,159.2z M238.4,164.5
	c-2,0.8-3.3,2.7-3.8,5.6c-0.2,1,0,3,0.7,6c7.5-3.1,10.4-6.4,8.9-10.1C243.3,163.8,241.4,163.3,238.4,164.5L238.4,164.5z"/>
<path class="st0" d="M261.2,158.6c0.6-3.5,2.2-6.9,4.5-9.6c2.1-2.5,4.7-4.4,7.6-5.7c2.2-1,4.6-1.6,7.1-1.8c2,0,3.2,0.5,3.6,1.6
	c0.5,1.2,0.6,2.4,0.4,3.6c0,1.1-0.7,2.2-1.8,2.6c-1.1,0.2-2.3,0.4-3.5,0.4c-1.2,0-2.4,0.1-3.6,0.4c-3,1.2-5.4,3.6-6.5,6.7
	c-1.2,3.4-1.1,7.1,0.4,10.3c1.5,3.7,3.3,6.3,5.2,7.6c2,1.3,4.4,1.4,7.3,0.2c1.2-0.5,2.9-2,5.2-4.5c2.3-2.5,3.8-3.9,4.5-4.2
	c0.6-0.3,1.3-0.3,1.9,0c0.6,0.2,1.1,0.7,1.3,1.3c0.5,1.3,0.3,2.9-0.8,5c-1.2,2.2-2.7,4.3-4.6,6c-1.7,1.7-3.7,3.1-5.9,4.1
	c-3.9,1.8-8.5,1.4-12.1-0.9c-3.8-2.4-6.9-6.4-9.3-12.2C261,166.1,260.5,162.3,261.2,158.6z"/>
<path class="st0" d="M288.8,136.9l4-1.6c0.5-0.2,1-0.4,1.5-0.7l-6.8-16.4c-0.3-1-0.2-2,0.4-2.9c0.4-0.8,1.1-1.5,2-1.9
	c0.7-0.3,1.4-0.3,2.1,0c0.8,0.4,1.3,1.2,1.5,2c0.4,1,2.6,6.6,6.8,16.6l9.2-4.2c1.6-0.7,2.8-0.1,3.5,1.8c0.6,1.1,0.6,2.5,0,3.6
	c-0.5,1-1.2,1.7-2.2,2.2c-0.9,0.4-1.8,0.9-2.7,1.2l-4.9,1.9c0.9,2.2,2.9,6.4,6,12.6c3.1,6.3,5.2,10.3,6.2,12
	c0.8,1.1,1.3,2.3,1.7,3.6c0.1,0.5-0.1,1.1-0.4,1.5c-0.7,0.7-1.6,1.3-2.6,1.6c-1.1,0.5-2.3,0.1-2.8-1c0,0,0,0,0-0.1
	c-5.2-9-9.9-18.3-14-27.9c-0.5,0.3-2.3,1-5.5,2.4s-5.2,1-5.9-0.8C284.9,140.1,285.9,138.1,288.8,136.9z"/>
<path class="st0" d="M320.1,127.1c1.4-2.7,3.8-4.9,6.6-6c2.9-1.2,6-1.8,9.2-1.9c3.2,0,5.1,0.8,5.8,2.6c0.4,0.8,0.3,1.8-0.1,2.6
	c-0.3,0.7-0.8,1.2-1.5,1.5c-0.5,0.2-0.9,0.4-1.2,0.4c-1.3,0.1-2.5,0-3.8-0.2c-1.9-0.2-3.9,0-5.7,0.7c-1.4,0.5-2.6,1.5-3.5,2.8
	c-0.8,1.2-0.9,2.8-0.2,4.1c0.5,1.4,1.8,2.5,3.3,2.7c1.6,0.3,4.1,0.2,7.5-0.5c2.7-0.7,5.5-0.8,8.3-0.4c2.1,0.4,3.8,2.2,5.1,5.2
	c1.8,4.4,2,8,0.4,10.8c-1.6,2.9-4.2,5.1-7.3,6.2c-2.8,1.3-5.9,2-9,2.1c-2.7,0-4.4-0.8-5.1-2.6c-0.9-2.1-0.3-3.5,1.8-4.4
	c1.3-0.3,2.7-0.4,4-0.3c2,0,4-0.4,5.9-1.1c1.6-0.5,2.8-1.8,3.4-3.4c0.5-1.5,0.4-3.1-0.2-4.5c-0.5-1.4-1.7-2.4-3.2-2.5
	c-2.1-0.1-4.2,0.1-6.3,0.7c-2,0.5-4,0.8-6.1,0.9c-3.7,0-6.5-2.2-8.3-6.6C318.5,133.1,318.6,129.8,320.1,127.1z"/>
<path class="st0" d="M187.5,0l-32.2,9c-1.1,0.3,2.8,14.8,3.9,14.5l7.4-2.1c-29.8,32.9-35.4,81.4-27.5,124.7
	c0.5,3.5,1.4,6.9,2.7,10.2c0.9,2,1.6,2.6,1-0.3c-8-43.7-0.5-92.6,31.6-124.3c-1.1,3.8-2.1,7.7-3,11.6c-0.6,2.6,1.1,6.6,1.9,9
	c0.2,0.8,2,5.5,2.2,4.8c2.6-8.5,5.2-17,7.8-25.5c2.3-5.9,5-11.6,7.9-17.2C192.3,12.9,188.5-0.3,187.5,0z"/>
</svg>
